<svg xmlns="http://www.w3.org/2000/svg" width="1920" height="276" viewBox="0 0 1920 276" fill="none">
<path d="M664.266 267.585H592.481L538.895 152.81L485.309 267.585H413.524L538.895 0L664.266 267.585Z" fill="white"/>
<path d="M928.152 267.585H677.409L802.78 0L928.152 267.585ZM768.404 215.751H836.819L802.443 142.712L768.404 215.751Z" fill="white"/>
<path d="M435.092 8.41463V64.6242H368.025V267.585H298.936V64.6242H231.869V8.41463H435.092Z" fill="white"/>
<path d="M1174.18 8.41463V267.585H1105.09V165.937H1027.23V267.585H958.146V8.41463H1027.23V110.063H1105.09V8.41463H1174.18Z" fill="white"/>
<path d="M1406.05 8.41463V64.6242H1339.32V267.585H1269.89V64.6242H1203.16V8.41463H1406.05Z" fill="white"/>
<path d="M1651.06 0V267.585H1581.97V140.019L1435.03 276V8.41463H1504.12V135.98L1651.06 0Z" fill="white"/>
<path d="M1870.46 181.42L1920 219.117C1907.53 235.273 1892.03 248.4 1873.49 257.488C1854.96 266.912 1835.07 271.624 1813.84 271.624C1776.77 271.624 1745.42 258.834 1719.14 232.244C1692.85 205.654 1680.04 175.025 1680.04 138C1680.04 100.976 1692.85 69.6732 1719.14 43.4196C1745.42 17.1659 1776.77 4.37577 1813.84 4.37577C1835.07 4.37577 1855.29 9.08801 1873.49 18.5124C1892.03 27.9368 1907.19 40.7269 1920 56.883L1870.46 94.9171C1856.3 76.0683 1837.43 66.9806 1813.84 66.9806C1793.95 66.9806 1777.44 73.7123 1763.29 87.8489C1749.13 101.985 1742.39 118.478 1742.39 138.337C1742.39 158.195 1749.13 174.688 1763.29 188.825C1777.44 202.961 1793.95 209.693 1813.84 209.693C1837.43 209.356 1856.3 199.932 1870.46 181.42Z" fill="white"/>
<path d="M250.742 267.585H0L125.371 0L250.742 267.585ZM90.9953 215.751H159.41L125.034 142.712L90.9953 215.751Z" fill="white"/>
</svg>