<svg width="570" height="132" viewBox="0 0 570 132" fill="none" xmlns="http://www.w3.org/2000/svg">
<path d="M197.1 79.5H175.8L159.9 45.4L144 79.5H122.7L159.9 0L197.1 79.5Z" fill="#273C55"/>
<path d="M275.4 79.5H201L238.2 0L275.4 79.5ZM228 64.1H248.3L238.1 42.4L228 64.1Z" fill="#273C55"/>
<path d="M129.1 2.5V19.2H109.2V79.5H88.6998V19.2H68.7998V2.5H129.1Z" fill="#273C55"/>
<path d="M348.4 2.5V79.5H327.9V49.3H304.8V79.5H284.3V2.5H304.8V32.7H327.9V2.5H348.4Z" fill="#273C55"/>
<path d="M417.2 2.5V19.2H397.4V79.5H376.8V19.2H357V2.5H417.2Z" fill="#273C55"/>
<path d="M489.9 0V79.5H469.4V41.6L425.8 82V2.5H446.3V40.4L489.9 0Z" fill="#273C55"/>
<path d="M555 53.8998L569.7 65.0998C566 69.8998 561.4 73.7998 555.9 76.4998C550.4 79.2998 544.5 80.6998 538.2 80.6998C527.2 80.6998 517.9 76.8998 510.1 68.9998C502.3 61.0998 498.5 51.9998 498.5 40.9998C498.5 29.9998 502.3 20.6998 510.1 12.8998C517.9 5.09981 527.2 1.2998 538.2 1.2998C544.5 1.2998 550.5 2.69982 555.9 5.49982C561.4 8.29982 565.9 12.0998 569.7 16.8998L555 28.1998C550.8 22.5998 545.2 19.8998 538.2 19.8998C532.3 19.8998 527.4 21.8998 523.2 26.0998C519 30.2998 517 35.1998 517 41.0998C517 46.9998 519 51.8998 523.2 56.0998C527.4 60.2998 532.3 62.2998 538.2 62.2998C545.2 62.1998 550.8 59.3998 555 53.8998Z" fill="#273C55"/>
<path d="M74.4 79.5H0L37.2 0L74.4 79.5ZM27 64.1H47.3L37.1 42.4L27 64.1Z" fill="#273C55"/>
<path d="M153.7 131.5H147.4L140.4 121.5V131.5H135.1V121.5L128.1 131.5H121.9L129.9 121L123 111.4H129.1L135.1 120.4V111.4H140.4V120.4L146.4 111.4H152.5L145.6 121L153.7 131.5Z" fill="#273C55"/>
<path d="M174.5 111H176.2V131.5H171V121L159.7 131.9H158V111.4H163.3V121.7L174.5 111Z" fill="#273C55"/>
<path d="M184.9 111.4H199V131.5H193.7V116.1H189.8C189.8 121.2 189.1 124.9 188 127.2C187.5 128.3 186.8 129.2 186 129.9C184.4 131.2 182.8 131.6 180.4 131.6V126.7C181.9 126.7 183 125.9 183.7 124.2C184.4 122.5 184.8 119.6 184.8 115.5V111.4H184.9Z" fill="#273C55"/>
<path d="M215.1 111C218.1 111 220.7 112 222.8 114C224.9 116 226 118.5 226 121.4C226 124.3 224.9 126.8 222.8 128.8C220.7 130.8 218.1 131.8 215.1 131.8C212.1 131.8 209.5 130.8 207.4 128.8C205.3 126.8 204.3 124.3 204.3 121.4C204.3 118.5 205.3 116 207.4 114C209.5 112 212.1 111 215.1 111ZM211.2 117.4C210.2 118.4 209.7 119.8 209.7 121.5C209.7 123.2 210.2 124.6 211.2 125.6C212.2 126.6 213.5 127.1 215.2 127.1C216.8 127.1 218.1 126.6 219.1 125.6C220.1 124.6 220.7 123.2 220.7 121.5C220.7 119.8 220.2 118.5 219.1 117.4C218.1 116.4 216.7 115.8 215.2 115.8C213.5 115.8 212.2 116.3 211.2 117.4Z" fill="#273C55"/>
<path d="M247.8 111H249.5V131.5H244.2V121L232.9 131.9H231.2V111.4H236.5V121.8L247.8 111ZM238.3 103.7C238.1 106.1 241.7 106.1 241.5 103.7H245.6C245.6 105.3 245.1 106.7 244 107.8C242.9 108.9 241.6 109.4 239.9 109.4C238.2 109.4 236.9 108.9 235.8 107.8C234.7 106.7 234.2 105.4 234.2 103.7H238.3Z" fill="#273C55"/>
<path d="M285.7 131.5H279.5L271.8 121.5V131.5H266.6V111.4H271.8V120.5L278.5 111.4H284.6L277.7 121L285.7 131.5Z" fill="#273C55"/>
<path d="M298.4 111C301.4 111 304 112 306.1 114C308.2 116 309.3 118.5 309.3 121.4C309.3 124.3 308.2 126.8 306.1 128.8C304 130.8 301.4 131.8 298.4 131.8C295.4 131.8 292.8 130.8 290.7 128.8C288.6 126.8 287.6 124.3 287.6 121.4C287.6 118.5 288.6 116 290.7 114C292.8 112 295.3 111 298.4 111ZM294.4 117.4C293.4 118.4 292.9 119.8 292.9 121.5C292.9 123.2 293.4 124.6 294.4 125.6C295.4 126.6 296.8 127.1 298.4 127.1C300 127.1 301.3 126.6 302.3 125.6C303.3 124.6 303.9 123.2 303.9 121.5C303.9 119.8 303.4 118.5 302.3 117.4C301.3 116.4 299.9 115.8 298.4 115.8C296.8 115.8 295.4 116.3 294.4 117.4Z" fill="#273C55"/>
<path d="M333.4 111H335V131.5H329.8V123.1L325.6 127.9H323.9L319.8 123.1V131.5H314.5V111H316.2L324.8 121.5L333.4 111Z" fill="#273C55"/>
<path d="M358.6 111.4V131.5H353.4V116.1H346.6V131.5H341.4V111.4H358.6Z" fill="#273C55"/>
<path d="M367.3 111.4H381.4V131.5H376.1V116.1H372.2C372.2 121.2 371.5 124.9 370.4 127.2C369.9 128.3 369.2 129.2 368.4 129.9C366.8 131.2 365.2 131.6 362.8 131.6V126.7C364.3 126.7 365.4 125.9 366.1 124.2C366.8 122.5 367.2 119.6 367.2 115.5V111.4H367.3Z" fill="#273C55"/>
<path d="M401.7 111.4V116.1H393V118.9H399.2V123.3H393V126.8H402V131.5H387.7V111.4H401.7Z" fill="#273C55"/>
<path d="M426.7 131.5H420.5L412.9 121.5V131.5H407.6V111.4H412.9V120.5L419.5 111.4H425.6L418.7 121L426.7 131.5Z" fill="#273C55"/>
<path d="M448.7 116.4L444.7 119.1C443.4 116.9 441.6 115.8 439.4 115.8C437.8 115.8 436.5 116.3 435.4 117.4C434.4 118.4 433.9 119.8 433.9 121.5C433.9 124.9 436.1 127.1 439.4 127.1C441.6 127.1 443.3 126 444.7 123.8L448.7 126.5C446.9 129.9 443.5 131.9 439.5 131.9C436.4 131.9 433.9 130.9 431.8 128.9C429.7 126.9 428.7 124.4 428.7 121.5C428.7 118.6 429.7 116.1 431.8 114.1C433.9 112.1 436.5 111.1 439.6 111.1C443.5 111 446.8 113 448.7 116.4Z" fill="#273C55"/>
</svg>
